<svg width="600" height="600" xmlns="http://www.w3.org/2000/svg"><defs><linearGradient id="bg" x1="0%" y1="0%" x2="100%" y2="100%"><stop offset="0%" stop-color="#2d5a42"/><stop offset="100%" stop-color="#1a3a2a"/></linearGradient><radialGradient id="gl" cx="50%" cy="42%" r="55%"><stop offset="0%" stop-color="#c5a55a" stop-opacity="0.2"/><stop offset="100%" stop-color="#1a3a2a" stop-opacity="0"/></radialGradient><radialGradient id="v" cx="50%" cy="50%" r="70%"><stop offset="0%" stop-color="transparent"/><stop offset="100%" stop-color="#000" stop-opacity="0.3"/></radialGradient><filter id="grain"><feTurbulence type="fractalNoise" baseFrequency="0.65" numOctaves="3" stitchTiles="stitch"/><feColorMatrix type="saturate" values="0"/></filter></defs><rect width="600" height="600" fill="url(#bg)"/><rect width="600" height="600" fill="url(#gl)"/><circle cx="51.6%" cy="42.1%" r="9.2%" fill="#fff" opacity="0.090"/><circle cx="54.5%" cy="20.4%" r="9.7%" fill="#c5a55a" opacity="0.094"/><circle cx="38.4%" cy="14.5%" r="6.0%" fill="#c5a55a" opacity="0.142"/><circle cx="54.1%" cy="2.4%" r="2.9%" fill="#2d5a42" opacity="0.140"/><circle cx="61.4%" cy="46.6%" r="8.3%" fill="#2d5a42" opacity="0.102"/><circle cx="18.2%" cy="61.6%" r="5.3%" fill="#2d5a42" opacity="0.085"/><circle cx="38.6%" cy="99.9%" r="2.4%" fill="#c5a55a" opacity="0.094"/><circle cx="90.7%" cy="60.5%" r="4.0%" fill="#c5a55a" opacity="0.139"/><circle cx="76.8%" cy="6.7%" r="6.0%" fill="#2d5a42" opacity="0.070"/><circle cx="37.6%" cy="0.4%" r="4.1%" fill="#fff" opacity="0.125"/><circle cx="16.0%" cy="80.1%" r="7.7%" fill="#2d5a42" opacity="0.077"/><circle cx="8.0%" cy="55.2%" r="7.7%" fill="#c5a55a" opacity="0.107"/><circle cx="96.0%" cy="6.0%" r="5.3%" fill="#c5a55a" opacity="0.120"/><circle cx="76.6%" cy="79.6%" r="5.7%" fill="#2d5a42" opacity="0.126"/><g transform="translate(300,252)" fill="#c5a55a" opacity="0.1"><ellipse cx="0" cy="0" rx="108" ry="90"/><ellipse cx="-72" cy="-72" rx="36" ry="48"/><ellipse cx="72" cy="-72" rx="36" ry="48"/><ellipse cx="0" cy="42.00000000000001" rx="54" ry="36"/></g><g transform="translate(44%,45%) rotate(196) scale(0.48)" fill="#c5a55a" opacity="0.04"><ellipse cx="0" cy="6" rx="5" ry="7"/><circle cx="-5" cy="-3" r="2.5"/><circle cx="5" cy="-3" r="2.5"/><circle cx="-3" cy="-6" r="2"/><circle cx="3" cy="-6" r="2"/></g><g transform="translate(79%,62%) rotate(353) scale(0.38)" fill="#c5a55a" opacity="0.04"><ellipse cx="0" cy="6" rx="5" ry="7"/><circle cx="-5" cy="-3" r="2.5"/><circle cx="5" cy="-3" r="2.5"/><circle cx="-3" cy="-6" r="2"/><circle cx="3" cy="-6" r="2"/></g><g transform="translate(50%,39%) rotate(244) scale(0.49)" fill="#c5a55a" opacity="0.04"><ellipse cx="0" cy="6" rx="5" ry="7"/><circle cx="-5" cy="-3" r="2.5"/><circle cx="5" cy="-3" r="2.5"/><circle cx="-3" cy="-6" r="2"/><circle cx="3" cy="-6" r="2"/></g><g transform="translate(79%,24%) rotate(56) scale(0.32)" fill="#c5a55a" opacity="0.04"><ellipse cx="0" cy="6" rx="5" ry="7"/><circle cx="-5" cy="-3" r="2.5"/><circle cx="5" cy="-3" r="2.5"/><circle cx="-3" cy="-6" r="2"/><circle cx="3" cy="-6" r="2"/></g><g transform="translate(84%,50%) rotate(339) scale(0.66)" fill="#c5a55a" opacity="0.04"><ellipse cx="0" cy="6" rx="5" ry="7"/><circle cx="-5" cy="-3" r="2.5"/><circle cx="5" cy="-3" r="2.5"/><circle cx="-3" cy="-6" r="2"/><circle cx="3" cy="-6" r="2"/></g><g transform="translate(76%,61%) rotate(295) scale(0.50)" fill="#c5a55a" opacity="0.04"><ellipse cx="0" cy="6" rx="5" ry="7"/><circle cx="-5" cy="-3" r="2.5"/><circle cx="5" cy="-3" r="2.5"/><circle cx="-3" cy="-6" r="2"/><circle cx="3" cy="-6" r="2"/></g><rect width="600" height="600" fill="url(#v)"/><rect width="100%" height="100%" filter="url(#grain)" opacity="0.04"/></svg>