<svg width="600" height="600" xmlns="http://www.w3.org/2000/svg"><defs><linearGradient id="bg" x1="0%" y1="0%" x2="100%" y2="100%"><stop offset="0%" stop-color="#8B6914"/><stop offset="100%" stop-color="#5a4510"/></linearGradient><radialGradient id="gl" cx="50%" cy="42%" r="55%"><stop offset="0%" stop-color="#d4bc7c" stop-opacity="0.2"/><stop offset="100%" stop-color="#5a4510" stop-opacity="0"/></radialGradient><radialGradient id="v" cx="50%" cy="50%" r="70%"><stop offset="0%" stop-color="transparent"/><stop offset="100%" stop-color="#000" stop-opacity="0.3"/></radialGradient><filter id="grain"><feTurbulence type="fractalNoise" baseFrequency="0.65" numOctaves="3" stitchTiles="stitch"/><feColorMatrix type="saturate" values="0"/></filter></defs><rect width="600" height="600" fill="url(#bg)"/><rect width="600" height="600" fill="url(#gl)"/><circle cx="37.9%" cy="27.3%" r="6.5%" fill="#d4bc7c" opacity="0.101"/><circle cx="58.2%" cy="59.8%" r="6.3%" fill="#d4bc7c" opacity="0.108"/><circle cx="18.6%" cy="48.7%" r="3.7%" fill="#fff" opacity="0.081"/><circle cx="5.5%" cy="86.2%" r="9.6%" fill="#d4bc7c" opacity="0.070"/><circle cx="8.0%" cy="22.2%" r="7.6%" fill="#8B6914" opacity="0.093"/><circle cx="37.9%" cy="97.4%" r="7.5%" fill="#fff" opacity="0.113"/><circle cx="69.3%" cy="36.5%" r="3.9%" fill="#fff" opacity="0.121"/><circle cx="17.1%" cy="14.0%" r="7.3%" fill="#d4bc7c" opacity="0.133"/><circle cx="90.6%" cy="38.9%" r="4.2%" fill="#fff" opacity="0.081"/><circle cx="17.3%" cy="96.8%" r="7.9%" fill="#fff" opacity="0.135"/><circle cx="79.6%" cy="60.2%" r="8.6%" fill="#8B6914" opacity="0.088"/><circle cx="99.9%" cy="48.2%" r="3.1%" fill="#8B6914" opacity="0.149"/><circle cx="63.2%" cy="53.1%" r="3.8%" fill="#8B6914" opacity="0.085"/><circle cx="3.1%" cy="51.0%" r="8.4%" fill="#fff" opacity="0.114"/><g transform="translate(300,252)" fill="#d4bc7c" opacity="0.1"><ellipse cx="0" cy="0" rx="108" ry="90"/><ellipse cx="-72" cy="-72" rx="36" ry="48"/><ellipse cx="72" cy="-72" rx="36" ry="48"/><ellipse cx="0" cy="42.00000000000001" rx="54" ry="36"/></g><g transform="translate(27%,50%) rotate(152) scale(0.51)" fill="#d4bc7c" opacity="0.04"><ellipse cx="0" cy="6" rx="5" ry="7"/><circle cx="-5" cy="-3" r="2.5"/><circle cx="5" cy="-3" r="2.5"/><circle cx="-3" cy="-6" r="2"/><circle cx="3" cy="-6" r="2"/></g><g transform="translate(39%,71%) rotate(129) scale(0.47)" fill="#d4bc7c" opacity="0.04"><ellipse cx="0" cy="6" rx="5" ry="7"/><circle cx="-5" cy="-3" r="2.5"/><circle cx="5" cy="-3" r="2.5"/><circle cx="-3" cy="-6" r="2"/><circle cx="3" cy="-6" r="2"/></g><g transform="translate(63%,77%) rotate(156) scale(0.32)" fill="#d4bc7c" opacity="0.04"><ellipse cx="0" cy="6" rx="5" ry="7"/><circle cx="-5" cy="-3" r="2.5"/><circle cx="5" cy="-3" r="2.5"/><circle cx="-3" cy="-6" r="2"/><circle cx="3" cy="-6" r="2"/></g><g transform="translate(42%,88%) rotate(248) scale(0.56)" fill="#d4bc7c" opacity="0.04"><ellipse cx="0" cy="6" rx="5" ry="7"/><circle cx="-5" cy="-3" r="2.5"/><circle cx="5" cy="-3" r="2.5"/><circle cx="-3" cy="-6" r="2"/><circle cx="3" cy="-6" r="2"/></g><g transform="translate(84%,34%) rotate(314) scale(0.35)" fill="#d4bc7c" opacity="0.04"><ellipse cx="0" cy="6" rx="5" ry="7"/><circle cx="-5" cy="-3" r="2.5"/><circle cx="5" cy="-3" r="2.5"/><circle cx="-3" cy="-6" r="2"/><circle cx="3" cy="-6" r="2"/></g><g transform="translate(46%,48%) rotate(343) scale(0.58)" fill="#d4bc7c" opacity="0.04"><ellipse cx="0" cy="6" rx="5" ry="7"/><circle cx="-5" cy="-3" r="2.5"/><circle cx="5" cy="-3" r="2.5"/><circle cx="-3" cy="-6" r="2"/><circle cx="3" cy="-6" r="2"/></g><rect width="600" height="600" fill="url(#v)"/><rect width="100%" height="100%" filter="url(#grain)" opacity="0.04"/></svg>