<svg width="400" height="400" xmlns="http://www.w3.org/2000/svg"><defs><linearGradient id="bg" x1="0%" y1="0%" x2="100%" y2="100%"><stop offset="0%" stop-color="#9a7824"/><stop offset="100%" stop-color="#5a4020"/></linearGradient><radialGradient id="gl" cx="50%" cy="42%" r="55%"><stop offset="0%" stop-color="#e8c4b8" stop-opacity="0.2"/><stop offset="100%" stop-color="#5a4020" stop-opacity="0"/></radialGradient><radialGradient id="v" cx="50%" cy="50%" r="70%"><stop offset="0%" stop-color="transparent"/><stop offset="100%" stop-color="#000" stop-opacity="0.3"/></radialGradient><filter id="grain"><feTurbulence type="fractalNoise" baseFrequency="0.65" numOctaves="3" stitchTiles="stitch"/><feColorMatrix type="saturate" values="0"/></filter></defs><rect width="400" height="400" fill="url(#bg)"/><rect width="400" height="400" fill="url(#gl)"/><circle cx="68.5%" cy="85.8%" r="5.9%" fill="#9a7824" opacity="0.082"/><circle cx="89.9%" cy="75.4%" r="2.1%" fill="#e8c4b8" opacity="0.118"/><circle cx="4.5%" cy="12.5%" r="5.4%" fill="#9a7824" opacity="0.102"/><circle cx="20.4%" cy="76.0%" r="8.1%" fill="#fff" opacity="0.128"/><circle cx="73.0%" cy="3.0%" r="9.4%" fill="#e8c4b8" opacity="0.108"/><circle cx="10.5%" cy="51.7%" r="10.0%" fill="#9a7824" opacity="0.107"/><circle cx="91.0%" cy="66.6%" r="6.6%" fill="#9a7824" opacity="0.141"/><circle cx="72.7%" cy="12.8%" r="4.7%" fill="#fff" opacity="0.122"/><circle cx="84.9%" cy="21.8%" r="9.0%" fill="#fff" opacity="0.113"/><circle cx="41.7%" cy="71.6%" r="9.8%" fill="#9a7824" opacity="0.086"/><circle cx="95.4%" cy="9.8%" r="3.4%" fill="#9a7824" opacity="0.083"/><circle cx="67.6%" cy="32.5%" r="2.4%" fill="#e8c4b8" opacity="0.110"/><circle cx="31.5%" cy="14.5%" r="6.2%" fill="#fff" opacity="0.075"/><circle cx="0.3%" cy="22.0%" r="7.4%" fill="#9a7824" opacity="0.147"/><g transform="translate(200,168)" fill="#e8c4b8" opacity="0.1"><ellipse cx="0" cy="0" rx="72" ry="60"/><ellipse cx="-48" cy="-48" rx="24" ry="32"/><ellipse cx="48" cy="-48" rx="24" ry="32"/><ellipse cx="0" cy="28.000000000000004" rx="36" ry="24"/></g><g transform="translate(75%,27%) rotate(78) scale(0.31)" fill="#e8c4b8" opacity="0.04"><ellipse cx="0" cy="6" rx="5" ry="7"/><circle cx="-5" cy="-3" r="2.5"/><circle cx="5" cy="-3" r="2.5"/><circle cx="-3" cy="-6" r="2"/><circle cx="3" cy="-6" r="2"/></g><g transform="translate(67%,53%) rotate(303) scale(0.43)" fill="#e8c4b8" opacity="0.04"><ellipse cx="0" cy="6" rx="5" ry="7"/><circle cx="-5" cy="-3" r="2.5"/><circle cx="5" cy="-3" r="2.5"/><circle cx="-3" cy="-6" r="2"/><circle cx="3" cy="-6" r="2"/></g><g transform="translate(16%,51%) rotate(270) scale(0.66)" fill="#e8c4b8" opacity="0.04"><ellipse cx="0" cy="6" rx="5" ry="7"/><circle cx="-5" cy="-3" r="2.5"/><circle cx="5" cy="-3" r="2.5"/><circle cx="-3" cy="-6" r="2"/><circle cx="3" cy="-6" r="2"/></g><g transform="translate(67%,52%) rotate(270) scale(0.44)" fill="#e8c4b8" opacity="0.04"><ellipse cx="0" cy="6" rx="5" ry="7"/><circle cx="-5" cy="-3" r="2.5"/><circle cx="5" cy="-3" r="2.5"/><circle cx="-3" cy="-6" r="2"/><circle cx="3" cy="-6" r="2"/></g><g transform="translate(19%,25%) rotate(198) scale(0.44)" fill="#e8c4b8" opacity="0.04"><ellipse cx="0" cy="6" rx="5" ry="7"/><circle cx="-5" cy="-3" r="2.5"/><circle cx="5" cy="-3" r="2.5"/><circle cx="-3" cy="-6" r="2"/><circle cx="3" cy="-6" r="2"/></g><g transform="translate(87%,87%) rotate(49) scale(0.41)" fill="#e8c4b8" opacity="0.04"><ellipse cx="0" cy="6" rx="5" ry="7"/><circle cx="-5" cy="-3" r="2.5"/><circle cx="5" cy="-3" r="2.5"/><circle cx="-3" cy="-6" r="2"/><circle cx="3" cy="-6" r="2"/></g><rect width="400" height="400" fill="url(#v)"/><rect width="100%" height="100%" filter="url(#grain)" opacity="0.04"/></svg>