<svg width="600" height="750" xmlns="http://www.w3.org/2000/svg"><defs><linearGradient id="bg" x1="0%" y1="0%" x2="100%" y2="100%"><stop offset="0%" stop-color="#9a7824"/><stop offset="100%" stop-color="#5a4020"/></linearGradient><radialGradient id="gl" cx="50%" cy="42%" r="55%"><stop offset="0%" stop-color="#d4bc7c" stop-opacity="0.2"/><stop offset="100%" stop-color="#5a4020" stop-opacity="0"/></radialGradient><radialGradient id="v" cx="50%" cy="50%" r="70%"><stop offset="0%" stop-color="transparent"/><stop offset="100%" stop-color="#000" stop-opacity="0.3"/></radialGradient><filter id="grain"><feTurbulence type="fractalNoise" baseFrequency="0.65" numOctaves="3" stitchTiles="stitch"/><feColorMatrix type="saturate" values="0"/></filter></defs><rect width="600" height="750" fill="url(#bg)"/><rect width="600" height="750" fill="url(#gl)"/><circle cx="57.9%" cy="68.4%" r="4.2%" fill="#d4bc7c" opacity="0.074"/><circle cx="21.7%" cy="33.2%" r="8.4%" fill="#fff" opacity="0.101"/><circle cx="56.6%" cy="41.6%" r="7.2%" fill="#9a7824" opacity="0.131"/><circle cx="20.8%" cy="91.6%" r="2.5%" fill="#9a7824" opacity="0.123"/><circle cx="74.8%" cy="38.6%" r="8.0%" fill="#fff" opacity="0.109"/><circle cx="19.8%" cy="4.6%" r="3.5%" fill="#9a7824" opacity="0.142"/><circle cx="44.1%" cy="28.6%" r="8.1%" fill="#fff" opacity="0.078"/><circle cx="86.5%" cy="26.4%" r="3.2%" fill="#fff" opacity="0.082"/><circle cx="86.3%" cy="26.2%" r="4.7%" fill="#fff" opacity="0.123"/><circle cx="5.2%" cy="95.9%" r="6.1%" fill="#fff" opacity="0.098"/><circle cx="89.2%" cy="90.2%" r="8.4%" fill="#9a7824" opacity="0.134"/><circle cx="40.0%" cy="89.3%" r="3.3%" fill="#d4bc7c" opacity="0.117"/><circle cx="36.7%" cy="92.0%" r="6.6%" fill="#9a7824" opacity="0.081"/><circle cx="87.7%" cy="4.0%" r="7.1%" fill="#9a7824" opacity="0.108"/><g transform="translate(300,315)" fill="#d4bc7c" opacity="0.1"><ellipse cx="0" cy="0" rx="108" ry="112.5"/><ellipse cx="-72" cy="-90" rx="36" ry="60"/><ellipse cx="72" cy="-90" rx="36" ry="60"/><ellipse cx="0" cy="52.50000000000001" rx="54" ry="45"/></g><g transform="translate(81%,16%) rotate(295) scale(0.44)" fill="#d4bc7c" opacity="0.04"><ellipse cx="0" cy="6" rx="5" ry="7"/><circle cx="-5" cy="-3" r="2.5"/><circle cx="5" cy="-3" r="2.5"/><circle cx="-3" cy="-6" r="2"/><circle cx="3" cy="-6" r="2"/></g><g transform="translate(52%,88%) rotate(289) scale(0.68)" fill="#d4bc7c" opacity="0.04"><ellipse cx="0" cy="6" rx="5" ry="7"/><circle cx="-5" cy="-3" r="2.5"/><circle cx="5" cy="-3" r="2.5"/><circle cx="-3" cy="-6" r="2"/><circle cx="3" cy="-6" r="2"/></g><g transform="translate(24%,59%) rotate(69) scale(0.42)" fill="#d4bc7c" opacity="0.04"><ellipse cx="0" cy="6" rx="5" ry="7"/><circle cx="-5" cy="-3" r="2.5"/><circle cx="5" cy="-3" r="2.5"/><circle cx="-3" cy="-6" r="2"/><circle cx="3" cy="-6" r="2"/></g><g transform="translate(19%,82%) rotate(317) scale(0.52)" fill="#d4bc7c" opacity="0.04"><ellipse cx="0" cy="6" rx="5" ry="7"/><circle cx="-5" cy="-3" r="2.5"/><circle cx="5" cy="-3" r="2.5"/><circle cx="-3" cy="-6" r="2"/><circle cx="3" cy="-6" r="2"/></g><g transform="translate(76%,18%) rotate(195) scale(0.41)" fill="#d4bc7c" opacity="0.04"><ellipse cx="0" cy="6" rx="5" ry="7"/><circle cx="-5" cy="-3" r="2.5"/><circle cx="5" cy="-3" r="2.5"/><circle cx="-3" cy="-6" r="2"/><circle cx="3" cy="-6" r="2"/></g><g transform="translate(65%,53%) rotate(195) scale(0.62)" fill="#d4bc7c" opacity="0.04"><ellipse cx="0" cy="6" rx="5" ry="7"/><circle cx="-5" cy="-3" r="2.5"/><circle cx="5" cy="-3" r="2.5"/><circle cx="-3" cy="-6" r="2"/><circle cx="3" cy="-6" r="2"/></g><rect width="600" height="750" fill="url(#v)"/><rect width="100%" height="100%" filter="url(#grain)" opacity="0.04"/></svg>